<mxfile host="app.diagrams.net" agent="Mozilla/5.0 (X11; Ubuntu; Linux x86_64; rv:131.0) Gecko/20100101 Firefox/131.0" version="24.8.2">
  <diagram name="Page-1" id="aAY0Zg2tUIm1X3uQ7Gg4">
    <mxGraphModel dx="1533" dy="374" grid="1" gridSize="10" guides="1" tooltips="1" connect="1" arrows="1" fold="1" page="1" pageScale="1" pageWidth="850" pageHeight="1100" math="0" shadow="0">
      <root>
        <mxCell id="0" />
        <mxCell id="1" parent="0" />
        <mxCell id="Kj56Fj0iodcM1ozijozk-1" value="Source" style="rounded=0;whiteSpace=wrap;html=1;" vertex="1" parent="1">
          <mxGeometry x="-720" y="180" width="120" height="60" as="geometry" />
        </mxCell>
        <mxCell id="Kj56Fj0iodcM1ozijozk-2" value="Destination" style="rounded=0;whiteSpace=wrap;html=1;" vertex="1" parent="1">
          <mxGeometry x="-440" y="180" width="120" height="60" as="geometry" />
        </mxCell>
        <mxCell id="Kj56Fj0iodcM1ozijozk-3" value="" style="endArrow=none;html=1;rounded=0;entryX=0.5;entryY=1;entryDx=0;entryDy=0;" edge="1" parent="1" target="Kj56Fj0iodcM1ozijozk-1">
          <mxGeometry width="50" height="50" relative="1" as="geometry">
            <mxPoint x="-660" y="510" as="sourcePoint" />
            <mxPoint x="-290" y="380" as="targetPoint" />
          </mxGeometry>
        </mxCell>
        <mxCell id="Kj56Fj0iodcM1ozijozk-4" value="" style="endArrow=none;html=1;rounded=0;entryX=0.5;entryY=1;entryDx=0;entryDy=0;" edge="1" parent="1" target="Kj56Fj0iodcM1ozijozk-2">
          <mxGeometry width="50" height="50" relative="1" as="geometry">
            <mxPoint x="-380" y="520" as="sourcePoint" />
            <mxPoint x="-290" y="380" as="targetPoint" />
          </mxGeometry>
        </mxCell>
        <mxCell id="Kj56Fj0iodcM1ozijozk-5" value="" style="endArrow=classic;html=1;rounded=0;" edge="1" parent="1">
          <mxGeometry width="50" height="50" relative="1" as="geometry">
            <mxPoint x="-660" y="320" as="sourcePoint" />
            <mxPoint x="-380" y="320" as="targetPoint" />
          </mxGeometry>
        </mxCell>
        <mxCell id="Kj56Fj0iodcM1ozijozk-6" value="First Frame" style="text;html=1;align=center;verticalAlign=middle;whiteSpace=wrap;rounded=0;" vertex="1" parent="1">
          <mxGeometry x="-550" y="290" width="70" height="30" as="geometry" />
        </mxCell>
        <mxCell id="Kj56Fj0iodcM1ozijozk-7" value="" style="endArrow=classic;html=1;rounded=0;" edge="1" parent="1">
          <mxGeometry width="50" height="50" relative="1" as="geometry">
            <mxPoint x="-380" y="360" as="sourcePoint" />
            <mxPoint x="-660" y="360" as="targetPoint" />
          </mxGeometry>
        </mxCell>
        <mxCell id="Kj56Fj0iodcM1ozijozk-8" value="Flow Control" style="text;html=1;align=center;verticalAlign=middle;whiteSpace=wrap;rounded=0;" vertex="1" parent="1">
          <mxGeometry x="-550" y="330" width="70" height="30" as="geometry" />
        </mxCell>
        <mxCell id="Kj56Fj0iodcM1ozijozk-9" value="" style="endArrow=classic;html=1;rounded=0;" edge="1" parent="1">
          <mxGeometry width="50" height="50" relative="1" as="geometry">
            <mxPoint x="-660" y="400" as="sourcePoint" />
            <mxPoint x="-380" y="400" as="targetPoint" />
          </mxGeometry>
        </mxCell>
        <mxCell id="Kj56Fj0iodcM1ozijozk-10" value="Consecutive Frame" style="text;html=1;align=center;verticalAlign=middle;whiteSpace=wrap;rounded=0;" vertex="1" parent="1">
          <mxGeometry x="-570" y="370" width="110" height="30" as="geometry" />
        </mxCell>
        <mxCell id="Kj56Fj0iodcM1ozijozk-11" value="" style="endArrow=classic;html=1;rounded=0;" edge="1" parent="1">
          <mxGeometry width="50" height="50" relative="1" as="geometry">
            <mxPoint x="-660" y="440" as="sourcePoint" />
            <mxPoint x="-380" y="440" as="targetPoint" />
          </mxGeometry>
        </mxCell>
        <mxCell id="Kj56Fj0iodcM1ozijozk-12" value="Consecutive Frame" style="text;html=1;align=center;verticalAlign=middle;whiteSpace=wrap;rounded=0;" vertex="1" parent="1">
          <mxGeometry x="-570" y="410" width="110" height="30" as="geometry" />
        </mxCell>
        <mxCell id="Kj56Fj0iodcM1ozijozk-13" value="" style="endArrow=classic;html=1;rounded=0;" edge="1" parent="1">
          <mxGeometry width="50" height="50" relative="1" as="geometry">
            <mxPoint x="-660" y="480" as="sourcePoint" />
            <mxPoint x="-380" y="480" as="targetPoint" />
          </mxGeometry>
        </mxCell>
        <mxCell id="Kj56Fj0iodcM1ozijozk-14" value="Consecutive Frame" style="text;html=1;align=center;verticalAlign=middle;whiteSpace=wrap;rounded=0;" vertex="1" parent="1">
          <mxGeometry x="-570" y="450" width="110" height="30" as="geometry" />
        </mxCell>
      </root>
    </mxGraphModel>
  </diagram>
</mxfile>
